<mxfile host="app.diagrams.net" modified="2023-08-28T14:37:57.210Z" agent="Mozilla/5.0 (Windows NT 10.0; Win64; x64) AppleWebKit/537.36 (KHTML, like Gecko) Chrome/116.0.0.0 Safari/537.36" version="21.6.8" etag="E516KjwdBVrVpnmTA53j" type="github">
  <diagram name="Page-1" id="9Q9VHU6pmtk_KyYUloHF">
    <mxGraphModel>
      <root>
        <mxCell id="0" />
        <mxCell id="1" parent="0" />
        <mxCell id="2" value="Homepage" style="whiteSpace=wrap;strokeWidth=2;" vertex="1" parent="1">
          <mxGeometry width="90" height="34" as="geometry" />
        </mxCell>
        <mxCell id="3" value="URL1" style="whiteSpace=wrap;strokeWidth=2;" vertex="1" parent="1">
          <mxGeometry x="140" width="51" height="34" as="geometry" />
        </mxCell>
        <mxCell id="4" value="URL2" style="whiteSpace=wrap;strokeWidth=2;" vertex="1" parent="1">
          <mxGeometry x="242" width="51" height="34" as="geometry" />
        </mxCell>
        <mxCell id="5" value="URL3" style="whiteSpace=wrap;strokeWidth=2;" vertex="1" parent="1">
          <mxGeometry x="343" width="51" height="34" as="geometry" />
        </mxCell>
        <mxCell id="6" value="URL4" style="whiteSpace=wrap;strokeWidth=2;" vertex="1" parent="1">
          <mxGeometry x="444" width="52" height="34" as="geometry" />
        </mxCell>
        <mxCell id="7" value="URL5" style="whiteSpace=wrap;strokeWidth=2;" vertex="1" parent="1">
          <mxGeometry x="546" width="51" height="34" as="geometry" />
        </mxCell>
        <mxCell id="8" value="" style="curved=1;startArrow=none;endArrow=block;exitX=1.0046006944444446;exitY=0.3106146147325563;entryX=0.008118872549019608;entryY=0.35121534716418995;" edge="1" parent="1" source="2" target="3">
          <mxGeometry relative="1" as="geometry">
            <Array as="points">
              <mxPoint x="115" y="7" />
            </Array>
          </mxGeometry>
        </mxCell>
        <mxCell id="9" value="" style="curved=1;startArrow=none;endArrow=block;exitX=1.0117953431372548;exitY=0.35121534716418995;entryX=-0.0078125;entryY=0.35121534716418995;" edge="1" parent="1" source="3" target="4">
          <mxGeometry relative="1" as="geometry">
            <Array as="points">
              <mxPoint x="217" y="7" />
            </Array>
          </mxGeometry>
        </mxCell>
        <mxCell id="10" value="" style="curved=1;startArrow=none;endArrow=block;exitX=0.9958639705882353;exitY=0.35121534716418995;entryX=-0.004136029411764706;entryY=0.35121534716418995;" edge="1" parent="1" source="4" target="5">
          <mxGeometry relative="1" as="geometry">
            <Array as="points">
              <mxPoint x="318" y="7" />
            </Array>
          </mxGeometry>
        </mxCell>
        <mxCell id="11" value="" style="curved=1;startArrow=none;endArrow=block;exitX=0.9995404411764706;exitY=0.35121534716418995;entryX=-0.00045072115384615387;entryY=0.3503564446731951;" edge="1" parent="1" source="5" target="6">
          <mxGeometry relative="1" as="geometry">
            <Array as="points">
              <mxPoint x="419" y="7" />
            </Array>
          </mxGeometry>
        </mxCell>
        <mxCell id="12" value="" style="curved=1;startArrow=none;endArrow=block;exitX=0.9954927884615384;exitY=0.3503564446731951;entryX=-0.004595588235294118;entryY=0.35121534716418995;" edge="1" parent="1" source="6" target="7">
          <mxGeometry relative="1" as="geometry">
            <Array as="points">
              <mxPoint x="521" y="7" />
            </Array>
          </mxGeometry>
        </mxCell>
        <mxCell id="13" value="" style="curved=1;startArrow=none;endArrow=block;exitX=-0.004595588235294118;exitY=0.6487846528358101;entryX=0.9954927884615384;entryY=0.649643555326805;" edge="1" parent="1" source="7" target="6">
          <mxGeometry relative="1" as="geometry">
            <Array as="points">
              <mxPoint x="521" y="27" />
            </Array>
          </mxGeometry>
        </mxCell>
        <mxCell id="14" value="" style="curved=1;startArrow=none;endArrow=block;exitX=-0.00045072115384615387;exitY=0.649643555326805;entryX=0.9995404411764706;entryY=0.6487846528358101;" edge="1" parent="1" source="6" target="5">
          <mxGeometry relative="1" as="geometry">
            <Array as="points">
              <mxPoint x="419" y="27" />
            </Array>
          </mxGeometry>
        </mxCell>
        <mxCell id="15" value="" style="curved=1;startArrow=none;endArrow=block;exitX=-0.004136029411764706;exitY=0.6487846528358101;entryX=0.9958639705882353;entryY=0.6487846528358101;" edge="1" parent="1" source="5" target="4">
          <mxGeometry relative="1" as="geometry">
            <Array as="points">
              <mxPoint x="318" y="27" />
            </Array>
          </mxGeometry>
        </mxCell>
        <mxCell id="16" value="" style="curved=1;startArrow=none;endArrow=block;exitX=-0.0078125;exitY=0.6487846528358101;entryX=1.0117953431372548;entryY=0.6487846528358101;" edge="1" parent="1" source="4" target="3">
          <mxGeometry relative="1" as="geometry">
            <Array as="points">
              <mxPoint x="217" y="27" />
            </Array>
          </mxGeometry>
        </mxCell>
        <mxCell id="17" value="" style="curved=1;startArrow=none;endArrow=block;exitX=0.008118872549019608;exitY=0.6487846528358101;entryX=1.0046006944444446;entryY=0.6893853852674436;" edge="1" parent="1" source="3" target="2">
          <mxGeometry relative="1" as="geometry">
            <Array as="points">
              <mxPoint x="115" y="27" />
            </Array>
          </mxGeometry>
        </mxCell>
      </root>
    </mxGraphModel>
  </diagram>
</mxfile>
